/* XPM */
static const char * menu_check_13_xpm[] = {
"13 13 2 1",
" 	c None",
".	c #000000",
"             ",
"             ",
"             ",
"           . ",
"          .. ",
"         ..  ",
"  .     ..   ",
" ...   ..    ",
"  ... ..     ",
"   ....      ",
"    ..       ",
"             ",
"             "};
