/* XPM */
static const char * menu_check_11_xpm[] = {
"11 11 2 1",
" 	c None",
".	c #000000",
"           ",
"           ",
"           ",
"        .  ",
"       ..  ",
"  .   ..   ",
" ... ..    ",
"  ....     ",
"   ..      ",
"           ",
"           "};
