/* XPM */
static const char * menu_check_8_xpm[] = {
"8 8 5 1",
" 	c None",
".	c #DEDEDE",
"+	c #000000",
"@	c #989898",
"#	c #C9C9C9",
"        ",
"        ",
"     .+@",
".+. .++.",
"+++#++. ",
".++++.  ",
" .++.   ",
"        "};
